<?xml version="1.0" encoding="UTF-8" standalone="no"?>
<!DOCTYPE svg PUBLIC "-//W3C//DTD SVG 1.1//EN"
 "http://www.w3.org/Graphics/SVG/1.1/DTD/svg11.dtd">
<!-- Generated by graphviz version 2.43.0 (0)
 -->
<!-- Title: airflow Pages: 1 -->
<svg width="1484pt" height="890pt"
 viewBox="0.00 0.00 1484.00 890.00" xmlns="http://www.w3.org/2000/svg" xmlns:xlink="http://www.w3.org/1999/xlink">
<g id="graph0" class="graph" transform="scale(1 1) rotate(0) translate(4 886)">
<title>airflow</title>
<polygon fill="white" stroke="transparent" points="-4,4 -4,-886 1480,-886 1480,4 -4,4"/>
<text text-anchor="start" x="384.5" y="-861.4" font-family="Helvetica,sans-Serif" font-weight="bold" font-size="22.00">Airflow 3 Orchestration (LocalExecutor, Docker Compose)</text>
<text text-anchor="start" x="454.5" y="-825.4" font-family="Helvetica,sans-Serif" font-size="12.00" fill="#3a4a57">browser :3000  →  api&#45;server · scheduler / dag&#45;processor / triggerer · DAGs wrap project scripts</text>
<g id="clust1" class="cluster">
<title>cluster_svc</title>
<path fill="white" stroke="#aab8bf" stroke-width="2" d="M20,-480C20,-480 637,-480 637,-480 643,-480 649,-486 649,-492 649,-492 649,-752 649,-752 649,-758 643,-764 637,-764 637,-764 20,-764 20,-764 14,-764 8,-758 8,-752 8,-752 8,-492 8,-492 8,-486 14,-480 20,-480"/>
<text text-anchor="start" x="16" y="-743.4" font-family="Helvetica,sans-Serif" font-weight="bold" font-size="22.00" fill="#28353c">AIRFLOW 3 SERVICES · image apache/airflow:3.2.2</text>
</g>
<g id="clust2" class="cluster">
<title>cluster_dags</title>
<path fill="white" stroke="#c39bd8" stroke-width="2" d="M669,-136C669,-136 1378,-136 1378,-136 1384,-136 1390,-142 1390,-148 1390,-148 1390,-555 1390,-555 1390,-561 1384,-567 1378,-567 1378,-567 669,-567 669,-567 663,-567 657,-561 657,-555 657,-555 657,-148 657,-148 657,-142 663,-136 669,-136"/>
<text text-anchor="start" x="665" y="-546.4" font-family="Helvetica,sans-Serif" font-weight="bold" font-size="22.00" fill="#411061">DAGS · BashOperator: cd /opt/project &amp;&amp; python &lt;script&gt;</text>
</g>
<!-- browser -->
<g id="node1" class="node">
<title>browser</title>
<path fill="#00695c" stroke="#003d36" stroke-width="2.2" d="M255.5,-818C255.5,-818 128.5,-818 128.5,-818 122.5,-818 116.5,-812 116.5,-806 116.5,-806 116.5,-786 116.5,-786 116.5,-780 122.5,-774 128.5,-774 128.5,-774 255.5,-774 255.5,-774 261.5,-774 267.5,-780 267.5,-786 267.5,-786 267.5,-806 267.5,-806 267.5,-812 261.5,-818 255.5,-818"/>
<text text-anchor="start" x="165.5" y="-799.4" font-family="Helvetica,sans-Serif" font-weight="bold" font-size="12.00" fill="white">Your PC</text>
<text text-anchor="start" x="130.5" y="-787.4" font-family="Helvetica,sans-Serif" font-size="12.00" fill="white">http://localhost:3000</text>
</g>
<!-- api -->
<g id="node2" class="node">
<title>api</title>
<path fill="#1565c0" stroke="#0d3c75" stroke-width="2.2" d="M252,-724C252,-724 132,-724 132,-724 126,-724 120,-718 120,-712 120,-712 120,-684 120,-684 120,-678 126,-672 132,-672 132,-672 252,-672 252,-672 258,-672 264,-678 264,-684 264,-684 264,-712 264,-712 264,-718 258,-724 252,-724"/>
<text text-anchor="start" x="134" y="-705.4" font-family="Helvetica,sans-Serif" font-weight="bold" font-size="12.00" fill="white">airflow&#45;apiserver</text>
<text text-anchor="start" x="150.5" y="-695" font-family="Helvetica,sans-Serif" font-size="10.00" fill="white">api&#45;server, :8080</text>
<text text-anchor="start" x="145.5" y="-685" font-family="Helvetica,sans-Serif" font-size="10.00" fill="white">Web UI + REST API</text>
</g>
<!-- browser&#45;&gt;api -->
<g id="edge9" class="edge">
<title>browser&#45;&gt;api</title>
<path fill="none" stroke="#37474f" stroke-width="2" d="M192,-773.69C192,-761.85 192,-746.81 192,-733.35"/>
<polygon fill="#37474f" stroke="#37474f" stroke-width="2" points="195.15,-733.33 192,-724.33 188.85,-733.33 195.15,-733.33"/>
</g>
<!-- sched -->
<g id="node3" class="node">
<title>sched</title>
<path fill="#2e7d32" stroke="#1b4d1f" stroke-width="2.2" d="M443,-622C443,-622 321,-622 321,-622 315,-622 309,-616 309,-610 309,-610 309,-592 309,-592 309,-586 315,-580 321,-580 321,-580 443,-580 443,-580 449,-580 455,-586 455,-592 455,-592 455,-610 455,-610 455,-616 449,-622 443,-622"/>
<text text-anchor="start" x="323" y="-603.4" font-family="Helvetica,sans-Serif" font-weight="bold" font-size="12.00" fill="white">airflow&#45;scheduler</text>
<text text-anchor="start" x="348" y="-593" font-family="Helvetica,sans-Serif" font-size="10.00" fill="white">LocalExecutor</text>
</g>
<!-- api&#45;&gt;sched -->
<g id="edge10" class="edge">
<title>api&#45;&gt;sched</title>
<path fill="none" stroke="#37474f" stroke-width="2" d="M250.61,-667.7C277.21,-654.39 308.3,-638.85 333.55,-626.22"/>
<polygon fill="#37474f" stroke="#37474f" stroke-width="2" points="249.06,-664.95 242.42,-671.79 251.88,-670.58 249.06,-664.95"/>
<polygon fill="#37474f" stroke="#37474f" stroke-width="2" points="335.24,-628.9 341.88,-622.06 332.42,-623.27 335.24,-628.9"/>
</g>
<!-- pg -->
<g id="node6" class="node">
<title>pg</title>
<path fill="#e65100" stroke="#8f3200" stroke-width="2.2" d="M373,-530C373,-530 287,-530 287,-530 281,-530 275,-524 275,-518 275,-518 275,-500 275,-500 275,-494 281,-488 287,-488 287,-488 373,-488 373,-488 379,-488 385,-494 385,-500 385,-500 385,-518 385,-518 385,-524 379,-530 373,-530"/>
<text text-anchor="start" x="289" y="-511.4" font-family="Helvetica,sans-Serif" font-weight="bold" font-size="12.00" fill="white">postgres 16</text>
<text text-anchor="start" x="297.5" y="-501" font-family="Helvetica,sans-Serif" font-size="10.00" fill="white">metadata DB</text>
</g>
<!-- api&#45;&gt;pg -->
<g id="edge12" class="edge">
<title>api&#45;&gt;pg</title>
<path fill="none" stroke="#8f3200" stroke-width="2" stroke-dasharray="5,2" d="M216.06,-664.39C242.48,-628.59 284.45,-571.72 309.4,-537.91"/>
<polygon fill="#8f3200" stroke="#8f3200" stroke-width="2" points="213.42,-662.67 210.61,-671.78 218.49,-666.41 213.42,-662.67"/>
<polygon fill="#8f3200" stroke="#8f3200" stroke-width="2" points="312.25,-539.36 315.06,-530.25 307.18,-535.62 312.25,-539.36"/>
</g>
<!-- sched&#45;&gt;pg -->
<g id="edge11" class="edge">
<title>sched&#45;&gt;pg</title>
<path fill="none" stroke="#8f3200" stroke-width="2" d="M365.55,-571.53C359.34,-560.77 352.28,-548.56 346.1,-537.87"/>
<polygon fill="#8f3200" stroke="#8f3200" stroke-width="2" points="362.97,-573.36 370.2,-579.58 368.43,-570.21 362.97,-573.36"/>
<polygon fill="#8f3200" stroke="#8f3200" stroke-width="2" points="348.8,-536.25 341.57,-530.03 343.35,-539.4 348.8,-536.25"/>
</g>
<!-- d1 -->
<g id="node7" class="node">
<title>d1</title>
<path fill="#6a1b9a" stroke="#411061" stroke-width="2.2" d="M839.5,-527C839.5,-527 676.5,-527 676.5,-527 670.5,-527 664.5,-521 664.5,-515 664.5,-515 664.5,-503 664.5,-503 664.5,-497 670.5,-491 676.5,-491 676.5,-491 839.5,-491 839.5,-491 845.5,-491 851.5,-497 851.5,-503 851.5,-503 851.5,-515 851.5,-515 851.5,-521 845.5,-527 839.5,-527"/>
<text text-anchor="middle" x="758" y="-506.2" font-family="Helvetica,sans-Serif" font-size="11.00" fill="white">legal_texas_extraction</text>
</g>
<!-- sched&#45;&gt;d1 -->
<g id="edge15" class="edge">
<title>sched&#45;&gt;d1</title>
<path fill="none" stroke="#411061" stroke-width="2" d="M455.19,-598.87C508.94,-596.3 583.44,-589.09 648.32,-569.4"/>
<polygon fill="#411061" stroke="#411061" stroke-width="2" points="649.36,-572.37 657,-566.67 647.47,-566.36 649.36,-572.37"/>
</g>
<!-- dagp -->
<g id="node4" class="node">
<title>dagp</title>
<path fill="#2e7d32" stroke="#1b4d1f" stroke-width="2.2" d="M458.5,-719C458.5,-719 305.5,-719 305.5,-719 299.5,-719 293.5,-713 293.5,-707 293.5,-707 293.5,-689 293.5,-689 293.5,-683 299.5,-677 305.5,-677 305.5,-677 458.5,-677 458.5,-677 464.5,-677 470.5,-683 470.5,-689 470.5,-689 470.5,-707 470.5,-707 470.5,-713 464.5,-719 458.5,-719"/>
<text text-anchor="start" x="307.5" y="-700.4" font-family="Helvetica,sans-Serif" font-weight="bold" font-size="12.00" fill="white">airflow&#45;dag&#45;processor</text>
<text text-anchor="start" x="350.5" y="-690" font-family="Helvetica,sans-Serif" font-size="10.00" fill="white">parses DAGs</text>
</g>
<!-- dagp&#45;&gt;sched -->
<g id="edge13" class="edge">
<title>dagp&#45;&gt;sched</title>
<path fill="none" stroke="#37474f" stroke-width="2" d="M382,-667.62C382,-656.08 382,-642.87 382,-631.34"/>
<polygon fill="#37474f" stroke="#37474f" stroke-width="2" points="378.85,-667.85 382,-676.85 385.15,-667.85 378.85,-667.85"/>
<polygon fill="#37474f" stroke="#37474f" stroke-width="2" points="385.15,-631.12 382,-622.12 378.85,-631.12 385.15,-631.12"/>
</g>
<!-- trig -->
<g id="node5" class="node">
<title>trig</title>
<path fill="#2e7d32" stroke="#1b4d1f" stroke-width="2.2" d="M628.5,-719C628.5,-719 511.5,-719 511.5,-719 505.5,-719 499.5,-713 499.5,-707 499.5,-707 499.5,-689 499.5,-689 499.5,-683 505.5,-677 511.5,-677 511.5,-677 628.5,-677 628.5,-677 634.5,-677 640.5,-683 640.5,-689 640.5,-689 640.5,-707 640.5,-707 640.5,-713 634.5,-719 628.5,-719"/>
<text text-anchor="start" x="513.5" y="-700.4" font-family="Helvetica,sans-Serif" font-weight="bold" font-size="12.00" fill="white">airflow&#45;triggerer</text>
<text text-anchor="start" x="530" y="-690" font-family="Helvetica,sans-Serif" font-size="10.00" fill="white">deferrable tasks</text>
</g>
<!-- trig&#45;&gt;sched -->
<g id="edge14" class="edge">
<title>trig&#45;&gt;sched</title>
<path fill="none" stroke="#37474f" stroke-width="2" d="M522.04,-672.76C493.79,-658.49 458.19,-640.5 429.95,-626.23"/>
<polygon fill="#37474f" stroke="#37474f" stroke-width="2" points="520.68,-675.61 530.13,-676.85 523.52,-669.98 520.68,-675.61"/>
<polygon fill="#37474f" stroke="#37474f" stroke-width="2" points="431.27,-623.37 421.81,-622.12 428.42,-628.99 431.27,-623.37"/>
</g>
<!-- d3 -->
<g id="node9" class="node">
<title>d3</title>
<path fill="#6a1b9a" stroke="#411061" stroke-width="2.2" d="M839.5,-438C839.5,-438 676.5,-438 676.5,-438 670.5,-438 664.5,-432 664.5,-426 664.5,-426 664.5,-414 664.5,-414 664.5,-408 670.5,-402 676.5,-402 676.5,-402 839.5,-402 839.5,-402 845.5,-402 851.5,-408 851.5,-414 851.5,-414 851.5,-426 851.5,-426 851.5,-432 845.5,-438 839.5,-438"/>
<text text-anchor="middle" x="758" y="-417.2" font-family="Helvetica,sans-Serif" font-size="11.00" fill="white">legal_new_york_extraction</text>
</g>
<!-- d1&#45;&gt;d3 -->
<!-- d2 -->
<g id="node8" class="node">
<title>d2</title>
<path fill="#6a1b9a" stroke="#411061" stroke-width="2.2" d="M1328.5,-527C1328.5,-527 1165.5,-527 1165.5,-527 1159.5,-527 1153.5,-521 1153.5,-515 1153.5,-515 1153.5,-503 1153.5,-503 1153.5,-497 1159.5,-491 1165.5,-491 1165.5,-491 1328.5,-491 1328.5,-491 1334.5,-491 1340.5,-497 1340.5,-503 1340.5,-503 1340.5,-515 1340.5,-515 1340.5,-521 1334.5,-527 1328.5,-527"/>
<text text-anchor="middle" x="1247" y="-506.2" font-family="Helvetica,sans-Serif" font-size="11.00" fill="white">legal_florida_extraction</text>
</g>
<!-- d4 -->
<g id="node10" class="node">
<title>d4</title>
<path fill="#6a1b9a" stroke="#411061" stroke-width="2.2" d="M1328.5,-438C1328.5,-438 1165.5,-438 1165.5,-438 1159.5,-438 1153.5,-432 1153.5,-426 1153.5,-426 1153.5,-414 1153.5,-414 1153.5,-408 1159.5,-402 1165.5,-402 1165.5,-402 1328.5,-402 1328.5,-402 1334.5,-402 1340.5,-408 1340.5,-414 1340.5,-414 1340.5,-426 1340.5,-426 1340.5,-432 1334.5,-438 1328.5,-438"/>
<text text-anchor="middle" x="1247" y="-417.2" font-family="Helvetica,sans-Serif" font-size="11.00" fill="white">legal_california_extraction</text>
</g>
<!-- d2&#45;&gt;d4 -->
<!-- d5 -->
<g id="node11" class="node">
<title>d5</title>
<path fill="#6a1b9a" stroke="#411061" stroke-width="2.2" d="M839.5,-352C839.5,-352 676.5,-352 676.5,-352 670.5,-352 664.5,-346 664.5,-340 664.5,-340 664.5,-328 664.5,-328 664.5,-322 670.5,-316 676.5,-316 676.5,-316 839.5,-316 839.5,-316 845.5,-316 851.5,-322 851.5,-328 851.5,-328 851.5,-340 851.5,-340 851.5,-346 845.5,-352 839.5,-352"/>
<text text-anchor="middle" x="758" y="-331.2" font-family="Helvetica,sans-Serif" font-size="11.00" fill="white">legal_enrichment_tx_fl</text>
</g>
<!-- d3&#45;&gt;d5 -->
<!-- d6 -->
<g id="node12" class="node">
<title>d6</title>
<path fill="#6a1b9a" stroke="#411061" stroke-width="2.2" d="M1328.5,-352C1328.5,-352 1165.5,-352 1165.5,-352 1159.5,-352 1153.5,-346 1153.5,-340 1153.5,-340 1153.5,-328 1153.5,-328 1153.5,-322 1159.5,-316 1165.5,-316 1165.5,-316 1328.5,-316 1328.5,-316 1334.5,-316 1340.5,-322 1340.5,-328 1340.5,-328 1340.5,-340 1340.5,-340 1340.5,-346 1334.5,-352 1328.5,-352"/>
<text text-anchor="middle" x="1247" y="-331.2" font-family="Helvetica,sans-Serif" font-size="11.00" fill="white">legal_enrichment_ny</text>
</g>
<!-- d4&#45;&gt;d6 -->
<!-- d7 -->
<g id="node13" class="node">
<title>d7</title>
<path fill="#6a1b9a" stroke="#411061" stroke-width="2.2" d="M839.5,-266C839.5,-266 676.5,-266 676.5,-266 670.5,-266 664.5,-260 664.5,-254 664.5,-254 664.5,-242 664.5,-242 664.5,-236 670.5,-230 676.5,-230 676.5,-230 839.5,-230 839.5,-230 845.5,-230 851.5,-236 851.5,-242 851.5,-242 851.5,-254 851.5,-254 851.5,-260 845.5,-266 839.5,-266"/>
<text text-anchor="middle" x="758" y="-245.2" font-family="Helvetica,sans-Serif" font-size="11.00" fill="white">legal_enrichment_ca</text>
</g>
<!-- d5&#45;&gt;d7 -->
<!-- d8 -->
<g id="node14" class="node">
<title>d8</title>
<path fill="#6a1b9a" stroke="#411061" stroke-width="2.2" d="M1328.5,-266C1328.5,-266 1165.5,-266 1165.5,-266 1159.5,-266 1153.5,-260 1153.5,-254 1153.5,-254 1153.5,-242 1153.5,-242 1153.5,-236 1159.5,-230 1165.5,-230 1165.5,-230 1328.5,-230 1328.5,-230 1334.5,-230 1340.5,-236 1340.5,-242 1340.5,-242 1340.5,-254 1340.5,-254 1340.5,-260 1334.5,-266 1328.5,-266"/>
<text text-anchor="middle" x="1247" y="-245.2" font-family="Helvetica,sans-Serif" font-size="11.00" fill="white">legal_analytics_reporting</text>
</g>
<!-- d6&#45;&gt;d8 -->
<!-- d9 -->
<g id="node15" class="node">
<title>d9</title>
<path fill="#6a1b9a" stroke="#411061" stroke-width="2.2" d="M839.5,-180C839.5,-180 676.5,-180 676.5,-180 670.5,-180 664.5,-174 664.5,-168 664.5,-168 664.5,-156 664.5,-156 664.5,-150 670.5,-144 676.5,-144 676.5,-144 839.5,-144 839.5,-144 845.5,-144 851.5,-150 851.5,-156 851.5,-156 851.5,-168 851.5,-168 851.5,-174 845.5,-180 839.5,-180"/>
<text text-anchor="middle" x="758" y="-159.2" font-family="Helvetica,sans-Serif" font-size="11.00" fill="white">legal_data_platform</text>
</g>
<!-- d7&#45;&gt;d9 -->
<!-- d10 -->
<g id="node16" class="node">
<title>d10</title>
<path fill="#6a1b9a" stroke="#411061" stroke-width="2.2" d="M1328.5,-180C1328.5,-180 1165.5,-180 1165.5,-180 1159.5,-180 1153.5,-174 1153.5,-168 1153.5,-168 1153.5,-156 1153.5,-156 1153.5,-150 1159.5,-144 1165.5,-144 1165.5,-144 1328.5,-144 1328.5,-144 1334.5,-144 1340.5,-150 1340.5,-156 1340.5,-156 1340.5,-168 1340.5,-168 1340.5,-174 1334.5,-180 1328.5,-180"/>
<text text-anchor="middle" x="1247" y="-159.2" font-family="Helvetica,sans-Serif" font-size="11.00" fill="white">legal_full_pipeline</text>
</g>
<!-- d8&#45;&gt;d10 -->
<!-- cl -->
<g id="node17" class="node">
<title>cl</title>
<path fill="#00695c" stroke="#003d36" stroke-width="2.2" d="M936,-94C936,-94 580,-94 580,-94 574,-94 568,-88 568,-82 568,-82 568,-12 568,-12 568,-6 574,0 580,0 580,0 936,0 936,0 942,0 948,-6 948,-12 948,-12 948,-82 948,-82 948,-88 942,-94 936,-94"/>
<text text-anchor="start" x="582" y="-75.4" font-family="Helvetica,sans-Serif" font-weight="bold" font-size="12.00" fill="white">legal_courtlistener_extraction</text>
<text text-anchor="start" x="783" y="-75.4" font-family="Helvetica,sans-Serif" font-size="12.00" fill="white"> (S3 + Parquet + Athena)</text>
<text text-anchor="start" x="728" y="-53" font-family="Helvetica,sans-Serif" font-size="10.00" fill="white">decide_path</text>
<text text-anchor="start" x="660" y="-43" font-family="Helvetica,sans-Serif" font-size="10.00" fill="white">  dry&#45;run: phase2 SQL → phase3 preview</text>
<text text-anchor="start" x="660" y="-33" font-family="Helvetica,sans-Serif" font-size="10.00" fill="white">  real:    phase2_extract → phase3_score</text>
<text text-anchor="start" x="627.5" y="-23" font-family="Helvetica,sans-Serif" font-size="10.00" fill="white">  → extraction_analytics → enrichment_cost_estimate</text>
<text text-anchor="start" x="705" y="-13" font-family="Helvetica,sans-Serif" font-weight="bold" font-size="10.00" fill="white">dry&#45;run by default</text>
</g>
<!-- d9&#45;&gt;cl -->
<g id="edge16" class="edge">
<title>d9&#45;&gt;cl</title>
<path fill="none" stroke="#411061" stroke-width="2" d="M758,-136C758,-126.3 758,-114.77 758,-103.31"/>
<polygon fill="#411061" stroke="#411061" stroke-width="2" points="761.15,-103.18 758,-94.18 754.85,-103.18 761.15,-103.18"/>
</g>
<!-- mount -->
<g id="node18" class="node">
<title>mount</title>
<polygon fill="#455a64" stroke="#28353c" stroke-width="2.2" points="1470,-65 1018,-65 1018,-29 1476,-29 1476,-59 1470,-65"/>
<polyline fill="none" stroke="#28353c" stroke-width="2.2" points="1470,-65 1470,-59 "/>
<polyline fill="none" stroke="#28353c" stroke-width="2.2" points="1476,-59 1470,-59 "/>
<text text-anchor="start" x="1032" y="-44.5" font-family="Helvetica,sans-Serif" font-size="10.00" fill="white">repo mounted at /opt/project · LEGAL_PIPELINE_PROJECT_ROOT · secrets via airflow/.env</text>
</g>
<!-- d10&#45;&gt;mount -->
</g>
</svg>
