<?xml version="1.0" encoding="UTF-8" standalone="no"?>
<!DOCTYPE svg PUBLIC "-//W3C//DTD SVG 1.1//EN"
 "http://www.w3.org/Graphics/SVG/1.1/DTD/svg11.dtd">
<!-- Generated by graphviz version 2.43.0 (0)
 -->
<!-- Title: courtlistener Pages: 1 -->
<svg width="1132pt" height="564pt"
 viewBox="0.00 0.00 1131.50 564.00" xmlns="http://www.w3.org/2000/svg" xmlns:xlink="http://www.w3.org/1999/xlink">
<g id="graph0" class="graph" transform="scale(1 1) rotate(0) translate(4 560)">
<title>courtlistener</title>
<polygon fill="white" stroke="transparent" points="-4,4 -4,-560 1127.5,-560 1127.5,4 -4,4"/>
<text text-anchor="start" x="252.75" y="-535.4" font-family="Helvetica,sans-Serif" font-weight="bold" font-size="22.00">CourtListener Case&#45;Law — S3 + Parquet + Athena</text>
<text text-anchor="start" x="288.25" y="-499.4" font-family="Helvetica,sans-Serif" font-size="12.00" fill="#3a4a57">one&#45;time conversion  →  serverless Athena join (~$0.05/run)  →  PA scoring  →  client review</text>
<!-- raw -->
<g id="node1" class="node">
<title>raw</title>
<path fill="#c62828" stroke="#7f1818" stroke-width="2.2" d="M266,-492C266,-492 12,-492 12,-492 6,-492 0,-486 0,-480 0,-480 0,-448 0,-448 0,-442 6,-436 12,-436 12,-436 266,-436 266,-436 272,-436 278,-442 278,-448 278,-448 278,-480 278,-480 278,-486 272,-492 266,-492"/>
<text text-anchor="start" x="51.5" y="-473" font-family="Helvetica,sans-Serif" font-weight="bold" font-size="10.00" fill="#ffd9d9">PHASE 1 · one&#45;time, EC2 ~2.5h</text>
<text text-anchor="start" x="59" y="-461.4" font-family="Helvetica,sans-Serif" font-weight="bold" font-size="12.00" fill="white">Raw bulk CSVs</text>
<text text-anchor="start" x="160" y="-461.4" font-family="Helvetica,sans-Serif" font-size="12.00" fill="white"> (~62 GB)</text>
<text text-anchor="start" x="16" y="-451" font-family="Helvetica,sans-Serif" font-size="10.00" fill="white">dockets · clusters · opinions · s3://…/raw/ *.csv.bz2</text>
</g>
<!-- convert -->
<g id="node2" class="node">
<title>convert</title>
<path fill="#2e7d32" stroke="#1b4d1f" stroke-width="2.2" d="M229,-388C229,-388 49,-388 49,-388 43,-388 37,-382 37,-376 37,-376 37,-344 37,-344 37,-338 43,-332 49,-332 49,-332 229,-332 229,-332 235,-332 241,-338 241,-344 241,-344 241,-376 241,-376 241,-382 235,-388 229,-388"/>
<text text-anchor="start" x="63.5" y="-367.4" font-family="Helvetica,sans-Serif" font-weight="bold" font-size="12.00" fill="white">convert_to_parquet.py</text>
<text text-anchor="start" x="59.5" y="-357" font-family="Helvetica,sans-Serif" font-size="10.00" fill="white">named pipe + pbzip2 + pyarrow</text>
<text text-anchor="start" x="53" y="-347" font-family="Helvetica,sans-Serif" font-size="10.00" fill="white">raw_text coalesced, HTML stripped</text>
</g>
<!-- raw&#45;&gt;convert -->
<g id="edge1" class="edge">
<title>raw&#45;&gt;convert</title>
<path fill="none" stroke="#37474f" stroke-width="2" d="M139,-435.93C139,-424.41 139,-410.77 139,-398.31"/>
<polygon fill="#37474f" stroke="#37474f" stroke-width="2" points="142.5,-398.19 139,-388.19 135.5,-398.19 142.5,-398.19"/>
</g>
<!-- glue -->
<g id="node3" class="node">
<title>glue</title>
<path fill="#e65100" stroke="#8f3200" stroke-width="2.2" d="M239,-274C239,-274 39,-274 39,-274 33,-274 27,-268 27,-262 27,-262 27,-240 27,-240 27,-234 33,-228 39,-228 39,-228 239,-228 239,-228 245,-228 251,-234 251,-240 251,-240 251,-262 251,-262 251,-268 245,-274 239,-274"/>
<text text-anchor="start" x="43" y="-253.4" font-family="Helvetica,sans-Serif" font-weight="bold" font-size="12.00" fill="white">Parquet on S3 + Glue tables</text>
<text text-anchor="start" x="51" y="-243" font-family="Helvetica,sans-Serif" font-size="10.00" fill="white">cl_dockets · cl_clusters · cl_opinions</text>
</g>
<!-- convert&#45;&gt;glue -->
<g id="edge2" class="edge">
<title>convert&#45;&gt;glue</title>
<path fill="none" stroke="#37474f" stroke-width="2" d="M139,-332C139,-317.51 139,-299.56 139,-284.33"/>
<polygon fill="#37474f" stroke="#37474f" stroke-width="2" points="142.5,-284.3 139,-274.3 135.5,-284.3 142.5,-284.3"/>
</g>
<!-- athena -->
<g id="node4" class="node">
<title>athena</title>
<path fill="#00695c" stroke="#003d36" stroke-width="2.2" d="M590.5,-284C590.5,-284 295.5,-284 295.5,-284 289.5,-284 283.5,-278 283.5,-272 283.5,-272 283.5,-230 283.5,-230 283.5,-224 289.5,-218 295.5,-218 295.5,-218 590.5,-218 590.5,-218 596.5,-218 602.5,-224 602.5,-230 602.5,-230 602.5,-272 602.5,-272 602.5,-278 596.5,-284 590.5,-284"/>
<text text-anchor="start" x="360" y="-265" font-family="Helvetica,sans-Serif" font-weight="bold" font-size="10.00" fill="#bfe3dd">PHASE 2 · recurring, seconds</text>
<text text-anchor="start" x="381.5" y="-253.4" font-family="Helvetica,sans-Serif" font-weight="bold" font-size="12.00" fill="white">athena_extract.py</text>
<text text-anchor="start" x="341.5" y="-243" font-family="Helvetica,sans-Serif" font-size="10.00" fill="white">3&#45;way join: dockets × clusters × opinions</text>
<text text-anchor="start" x="299.5" y="-233" font-family="Helvetica,sans-Serif" font-size="10.00" fill="white">filter: court_id + rolling 20y date_filed · UNLOAD → Parquet</text>
</g>
<!-- glue&#45;&gt;athena -->
<g id="edge5" class="edge">
<title>glue&#45;&gt;athena</title>
<path fill="none" stroke="#37474f" stroke-width="2" d="M251.22,-251C258.6,-251 265.98,-251 273.37,-251"/>
<polygon fill="#37474f" stroke="#37474f" stroke-width="2" points="273.43,-254.5 283.43,-251 273.43,-247.5 273.43,-254.5"/>
</g>
<!-- extracted -->
<g id="node5" class="node">
<title>extracted</title>
<path fill="#e65100" stroke="#8f3200" stroke-width="2.2" d="M525,-165C525,-165 361,-165 361,-165 355,-165 349,-159 349,-153 349,-153 349,-131 349,-131 349,-125 355,-119 361,-119 361,-119 525,-119 525,-119 531,-119 537,-125 537,-131 537,-131 537,-153 537,-153 537,-159 531,-165 525,-165"/>
<text text-anchor="start" x="365" y="-144.4" font-family="Helvetica,sans-Serif" font-weight="bold" font-size="12.00" fill="white">Extracted Parquet (S3)</text>
<text text-anchor="start" x="384" y="-134" font-family="Helvetica,sans-Serif" font-size="10.00" fill="white">530,141 cases · 4 states</text>
</g>
<!-- athena&#45;&gt;extracted -->
<g id="edge3" class="edge">
<title>athena&#45;&gt;extracted</title>
<path fill="none" stroke="#37474f" stroke-width="2" d="M443,-217.9C443,-204.49 443,-188.94 443,-175.49"/>
<polygon fill="#37474f" stroke="#37474f" stroke-width="2" points="446.5,-175.24 443,-165.24 439.5,-175.24 446.5,-175.24"/>
</g>
<!-- scorer -->
<g id="node6" class="node">
<title>scorer</title>
<path fill="#6a1b9a" stroke="#411061" stroke-width="2.2" d="M773,-175C773,-175 581,-175 581,-175 575,-175 569,-169 569,-163 569,-163 569,-121 569,-121 569,-115 575,-109 581,-109 581,-109 773,-109 773,-109 779,-109 785,-115 785,-121 785,-121 785,-163 785,-163 785,-169 779,-175 773,-175"/>
<text text-anchor="start" x="593.5" y="-156" font-family="Helvetica,sans-Serif" font-weight="bold" font-size="10.00" fill="#e3cdf0">PHASE 3 · recurring, ~25 min</text>
<text text-anchor="start" x="634.5" y="-144.4" font-family="Helvetica,sans-Serif" font-weight="bold" font-size="12.00" fill="white">pa_scorer.py</text>
<text text-anchor="start" x="585" y="-134" font-family="Helvetica,sans-Serif" font-size="10.00" fill="white">state&#45;aware keyword scoring (12 PAs)</text>
<text text-anchor="start" x="608" y="-124" font-family="Helvetica,sans-Serif" font-size="10.00" fill="white">route by precedential status</text>
</g>
<!-- extracted&#45;&gt;scorer -->
<g id="edge6" class="edge">
<title>extracted&#45;&gt;scorer</title>
<path fill="none" stroke="#37474f" stroke-width="2" d="M537.15,-142C544.24,-142 551.34,-142 558.44,-142"/>
<polygon fill="#37474f" stroke="#37474f" stroke-width="2" points="558.83,-145.5 568.83,-142 558.83,-138.5 558.83,-145.5"/>
</g>
<!-- buckets -->
<g id="node7" class="node">
<title>buckets</title>
<path fill="#e65100" stroke="#8f3200" stroke-width="2.2" d="M782.5,-66C782.5,-66 571.5,-66 571.5,-66 565.5,-66 559.5,-60 559.5,-54 559.5,-54 559.5,-12 559.5,-12 559.5,-6 565.5,0 571.5,0 571.5,0 782.5,0 782.5,0 788.5,0 794.5,-6 794.5,-12 794.5,-12 794.5,-54 794.5,-54 794.5,-60 788.5,-66 782.5,-66"/>
<text text-anchor="start" x="601.5" y="-45.4" font-family="Helvetica,sans-Serif" font-weight="bold" font-size="12.00" fill="white">results/bulk&#45;YYYY&#45;MM/</text>
<text text-anchor="start" x="586" y="-35" font-family="Helvetica,sans-Serif" font-size="10.00" fill="white">case · excluded · unmatched · review</text>
<text text-anchor="start" x="609.5" y="-25" font-family="Helvetica,sans-Serif" font-size="10.00" fill="white">&lt;state&gt;/&lt;pa&gt; · merged_pr</text>
<text text-anchor="start" x="575.5" y="-15" font-family="Helvetica,sans-Serif" font-size="10.00" fill="white">case 103,959 · excl 33,048 · unm 393,134</text>
</g>
<!-- scorer&#45;&gt;buckets -->
<g id="edge4" class="edge">
<title>scorer&#45;&gt;buckets</title>
<path fill="none" stroke="#37474f" stroke-width="2" d="M677,-108.9C677,-98.63 677,-87.11 677,-76.24"/>
<polygon fill="#37474f" stroke="#37474f" stroke-width="2" points="680.5,-76.08 677,-66.08 673.5,-76.08 680.5,-76.08"/>
</g>
<!-- review -->
<g id="node8" class="node">
<title>review</title>
<path fill="#ad1457" stroke="#6d0d37" stroke-width="2.2" d="M1111.5,-61C1111.5,-61 838.5,-61 838.5,-61 832.5,-61 826.5,-55 826.5,-49 826.5,-49 826.5,-17 826.5,-17 826.5,-11 832.5,-5 838.5,-5 838.5,-5 1111.5,-5 1111.5,-5 1117.5,-5 1123.5,-11 1123.5,-17 1123.5,-17 1123.5,-49 1123.5,-49 1123.5,-55 1117.5,-61 1111.5,-61"/>
<text text-anchor="start" x="892" y="-40.4" font-family="Helvetica,sans-Serif" font-weight="bold" font-size="12.00" fill="white">Analytics + client review</text>
<text text-anchor="start" x="842.5" y="-30" font-family="Helvetica,sans-Serif" font-size="10.00" fill="white">cl_extraction_analytics · cl_enrichment_cost_estimate</text>
<text text-anchor="start" x="853" y="-20" font-family="Helvetica,sans-Serif" font-size="10.00" fill="white">package_client_review → HTML / PDF / JSON → zip</text>
</g>
<!-- buckets&#45;&gt;review -->
<g id="edge7" class="edge">
<title>buckets&#45;&gt;review</title>
<path fill="none" stroke="#37474f" stroke-width="2" d="M794.57,-33C801.67,-33 808.78,-33 815.88,-33"/>
<polygon fill="#37474f" stroke="#37474f" stroke-width="2" points="816.29,-36.5 826.29,-33 816.29,-29.5 816.29,-36.5"/>
</g>
<!-- infra -->
<g id="node9" class="node">
<title>infra</title>
<path fill="#455a64" stroke="#28353c" stroke-width="2.2" d="M504.5,-393C504.5,-393 381.5,-393 381.5,-393 375.5,-393 369.5,-387 369.5,-381 369.5,-381 369.5,-339 369.5,-339 369.5,-333 375.5,-327 381.5,-327 381.5,-327 504.5,-327 504.5,-327 510.5,-327 516.5,-333 516.5,-339 516.5,-339 516.5,-381 516.5,-381 516.5,-387 510.5,-393 504.5,-393"/>
<text text-anchor="start" x="385.5" y="-372.4" font-family="Helvetica,sans-Serif" font-weight="bold" font-size="12.00" fill="white">Infra (Terraform)</text>
<text text-anchor="start" x="421" y="-362" font-family="Helvetica,sans-Serif" font-size="10.00" fill="white">S3 · Glue</text>
<text text-anchor="start" x="398" y="-352" font-family="Helvetica,sans-Serif" font-size="10.00" fill="white">Athena workgroup</text>
<text text-anchor="start" x="394.5" y="-342" font-family="Helvetica,sans-Serif" font-size="10.00" fill="white">IAM instance profile</text>
</g>
<!-- infra&#45;&gt;athena -->
<g id="edge8" class="edge">
<title>infra&#45;&gt;athena</title>
<path fill="none" stroke="#28353c" stroke-width="2" stroke-dasharray="5,2" d="M443,-326.9C443,-316.63 443,-305.11 443,-294.24"/>
<polygon fill="#28353c" stroke="#28353c" stroke-width="2" points="446.5,-294.08 443,-284.08 439.5,-294.08 446.5,-294.08"/>
</g>
</g>
</svg>
