<?xml version="1.0" encoding="UTF-8" standalone="no"?>
<!DOCTYPE svg PUBLIC "-//W3C//DTD SVG 1.1//EN"
 "http://www.w3.org/Graphics/SVG/1.1/DTD/svg11.dtd">
<!-- Generated by graphviz version 2.43.0 (0)
 -->
<!-- Title: system Pages: 1 -->
<svg width="830pt" height="679pt"
 viewBox="0.00 0.00 830.00 679.00" xmlns="http://www.w3.org/2000/svg" xmlns:xlink="http://www.w3.org/1999/xlink">
<g id="graph0" class="graph" transform="scale(1 1) rotate(0) translate(4 675)">
<title>system</title>
<polygon fill="white" stroke="transparent" points="-4,4 -4,-675 826,-675 826,4 -4,4"/>
<text text-anchor="start" x="128.5" y="-650.4" font-family="Helvetica,sans-Serif" font-weight="bold" font-size="22.00">Legal Statute Pipeline — System Architecture</text>
<text text-anchor="start" x="155.5" y="-614.4" font-family="Helvetica,sans-Serif" font-size="12.00" fill="#3a4a57">4 states × 12 practice areas  →  extraction  →  AI enrichment  →  analytics &amp; case&#45;law</text>
<g id="clust1" class="cluster">
<title>cluster_src</title>
<path fill="white" stroke="#90b4d8" stroke-width="2" d="M130,-505C130,-505 771,-505 771,-505 777,-505 783,-511 783,-517 783,-517 783,-587 783,-587 783,-593 777,-599 771,-599 771,-599 130,-599 130,-599 124,-599 118,-593 118,-587 118,-587 118,-517 118,-517 118,-511 124,-505 130,-505"/>
<text text-anchor="start" x="126" y="-578.4" font-family="Helvetica,sans-Serif" font-weight="bold" font-size="22.00" fill="#0d3c75">SOURCES · 53,131 statutes</text>
</g>
<g id="clust2" class="cluster">
<title>cluster_out</title>
<path fill="white" stroke="#d99bb6" stroke-width="2" d="M105,-138C105,-138 728,-138 728,-138 734,-138 740,-144 740,-150 740,-150 740,-230 740,-230 740,-236 734,-242 728,-242 728,-242 105,-242 105,-242 99,-242 93,-236 93,-230 93,-230 93,-150 93,-150 93,-144 99,-138 105,-138"/>
<text text-anchor="start" x="101" y="-221.4" font-family="Helvetica,sans-Serif" font-weight="bold" font-size="22.00" fill="#6d0d37">ANALYTICS &amp; DATA PLATFORM</text>
</g>
<!-- tx -->
<g id="node1" class="node">
<title>tx</title>
<path fill="#1565c0" stroke="#0d3c75" stroke-width="2.2" d="M762.5,-559C762.5,-559 669.5,-559 669.5,-559 663.5,-559 657.5,-553 657.5,-547 657.5,-547 657.5,-525 657.5,-525 657.5,-519 663.5,-513 669.5,-513 669.5,-513 762.5,-513 762.5,-513 768.5,-513 774.5,-519 774.5,-525 774.5,-525 774.5,-547 774.5,-547 774.5,-553 768.5,-559 762.5,-559"/>
<text text-anchor="start" x="673.5" y="-538.4" font-family="Helvetica,sans-Serif" font-weight="bold" font-size="12.00" fill="white">Texas</text>
<text text-anchor="start" x="712.5" y="-538.4" font-family="Helvetica,sans-Serif" font-size="12.00" fill="white"> · 4,796</text>
<text text-anchor="start" x="676" y="-528" font-family="Helvetica,sans-Serif" font-size="10.00" fill="white">texas.public.law</text>
</g>
<!-- extract -->
<g id="node5" class="node">
<title>extract</title>
<path fill="#2e7d32" stroke="#1b4d1f" stroke-width="2.2" d="M810,-463C810,-463 12,-463 12,-463 6,-463 0,-457 0,-451 0,-451 0,-438 0,-438 0,-432 6,-426 12,-426 12,-426 810,-426 810,-426 816,-426 822,-432 822,-438 822,-438 822,-451 822,-451 822,-457 816,-463 810,-463"/>
<text text-anchor="start" x="16" y="-442.4" font-family="Helvetica,sans-Serif" font-weight="bold" font-size="12.00" fill="white">EXTRACTION</text>
<text text-anchor="start" x="102" y="-442.4" font-family="Helvetica,sans-Serif" font-size="12.00" fill="white">  </text>
<text text-anchor="start" x="110" y="-442.4" font-family="Helvetica,sans-Serif" font-size="11.00" fill="white">per&#45;state scrapers &amp; API clients · flatten · threaded fetch · parse + normalize · proxy + resume · merged_pr/ for multi&#45;PA laws</text>
</g>
<!-- tx&#45;&gt;extract -->
<g id="edge1" class="edge">
<title>tx&#45;&gt;extract</title>
<path fill="none" stroke="#37474f" stroke-width="2" d="M662.32,-512.88C654.87,-510.08 647.28,-507.37 640,-505 593.62,-489.88 541,-475.99 497.9,-465.43"/>
<polygon fill="#37474f" stroke="#37474f" stroke-width="2" points="498.55,-461.99 488.01,-463.03 496.9,-468.79 498.55,-461.99"/>
</g>
<!-- fl -->
<g id="node2" class="node">
<title>fl</title>
<path fill="#1565c0" stroke="#0d3c75" stroke-width="2.2" d="M609.5,-559C609.5,-559 508.5,-559 508.5,-559 502.5,-559 496.5,-553 496.5,-547 496.5,-547 496.5,-525 496.5,-525 496.5,-519 502.5,-513 508.5,-513 508.5,-513 609.5,-513 609.5,-513 615.5,-513 621.5,-519 621.5,-525 621.5,-525 621.5,-547 621.5,-547 621.5,-553 615.5,-559 609.5,-559"/>
<text text-anchor="start" x="512.5" y="-538.4" font-family="Helvetica,sans-Serif" font-weight="bold" font-size="12.00" fill="white">Florida</text>
<text text-anchor="start" x="559.5" y="-538.4" font-family="Helvetica,sans-Serif" font-size="12.00" fill="white"> · 4,236</text>
<text text-anchor="start" x="528.5" y="-528" font-family="Helvetica,sans-Serif" font-size="10.00" fill="white">flsenate.gov</text>
</g>
<!-- fl&#45;&gt;extract -->
<g id="edge2" class="edge">
<title>fl&#45;&gt;extract</title>
<path fill="none" stroke="#37474f" stroke-width="2" d="M522.42,-512.88C500.05,-499.35 471.49,-482.08 448.89,-468.41"/>
<polygon fill="#37474f" stroke="#37474f" stroke-width="2" points="450.6,-465.36 440.23,-463.18 446.97,-471.35 450.6,-465.36"/>
</g>
<!-- ny -->
<g id="node3" class="node">
<title>ny</title>
<path fill="#1565c0" stroke="#0d3c75" stroke-width="2.2" d="M448.5,-559C448.5,-559 323.5,-559 323.5,-559 317.5,-559 311.5,-553 311.5,-547 311.5,-547 311.5,-525 311.5,-525 311.5,-519 317.5,-513 323.5,-513 323.5,-513 448.5,-513 448.5,-513 454.5,-513 460.5,-519 460.5,-525 460.5,-525 460.5,-547 460.5,-547 460.5,-553 454.5,-559 448.5,-559"/>
<text text-anchor="start" x="327.5" y="-538.4" font-family="Helvetica,sans-Serif" font-weight="bold" font-size="12.00" fill="white">New York</text>
<text text-anchor="start" x="391.5" y="-538.4" font-family="Helvetica,sans-Serif" font-size="12.00" fill="white"> · 18,528</text>
<text text-anchor="start" x="351" y="-528" font-family="Helvetica,sans-Serif" font-size="10.00" fill="white">NY Senate API</text>
</g>
<!-- ny&#45;&gt;extract -->
<g id="edge3" class="edge">
<title>ny&#45;&gt;extract</title>
<path fill="none" stroke="#37474f" stroke-width="2" d="M392.18,-512.88C395.56,-500.79 399.77,-485.71 403.35,-472.88"/>
<polygon fill="#37474f" stroke="#37474f" stroke-width="2" points="406.74,-473.75 406.06,-463.18 400,-471.87 406.74,-473.75"/>
</g>
<!-- ca -->
<g id="node4" class="node">
<title>ca</title>
<path fill="#1565c0" stroke="#0d3c75" stroke-width="2.2" d="M264,-559C264,-559 138,-559 138,-559 132,-559 126,-553 126,-547 126,-547 126,-525 126,-525 126,-519 132,-513 138,-513 138,-513 264,-513 264,-513 270,-513 276,-519 276,-525 276,-525 276,-547 276,-547 276,-553 270,-559 264,-559"/>
<text text-anchor="start" x="142" y="-538.4" font-family="Helvetica,sans-Serif" font-weight="bold" font-size="12.00" fill="white">California</text>
<text text-anchor="start" x="207" y="-538.4" font-family="Helvetica,sans-Serif" font-size="12.00" fill="white"> · 25,571</text>
<text text-anchor="start" x="151.5" y="-528" font-family="Helvetica,sans-Serif" font-size="10.00" fill="white">california.public.law</text>
</g>
<!-- ca&#45;&gt;extract -->
<g id="edge4" class="edge">
<title>ca&#45;&gt;extract</title>
<path fill="none" stroke="#37474f" stroke-width="2" d="M252.64,-512.99C285.47,-499 327.77,-480.97 360.4,-467.07"/>
<polygon fill="#37474f" stroke="#37474f" stroke-width="2" points="361.93,-470.22 369.76,-463.08 359.19,-463.78 361.93,-470.22"/>
</g>
<!-- statutes -->
<g id="node6" class="node">
<title>statutes</title>
<path fill="#e65100" stroke="#8f3200" stroke-width="2.2" d="M766,-376C766,-376 56,-376 56,-376 50,-376 44,-370 44,-364 44,-364 44,-351 44,-351 44,-345 50,-339 56,-339 56,-339 766,-339 766,-339 772,-339 778,-345 778,-351 778,-351 778,-364 778,-364 778,-370 772,-376 766,-376"/>
<text text-anchor="start" x="60" y="-355.4" font-family="Helvetica,sans-Serif" font-weight="bold" font-size="12.00" fill="white">STATUTES (JSON)</text>
<text text-anchor="start" x="178" y="-355.4" font-family="Helvetica,sans-Serif" font-size="12.00" fill="white">  </text>
<text text-anchor="start" x="186" y="-355.4" font-family="Helvetica,sans-Serif" font-size="11.00" fill="white">results/&lt;date&gt;/statutes/&lt;pa&gt;/ · ~102M chars raw_text · 12 practice areas · state · citation · source_url</text>
</g>
<!-- extract&#45;&gt;statutes -->
<g id="edge5" class="edge">
<title>extract&#45;&gt;statutes</title>
<path fill="none" stroke="#37474f" stroke-width="2" d="M411,-425.89C411,-414.49 411,-399.41 411,-386.4"/>
<polygon fill="#37474f" stroke="#37474f" stroke-width="2" points="414.5,-386.09 411,-376.09 407.5,-386.09 414.5,-386.09"/>
</g>
<!-- enrich -->
<g id="node7" class="node">
<title>enrich</title>
<path fill="#6a1b9a" stroke="#411061" stroke-width="2.2" d="M797.5,-289C797.5,-289 24.5,-289 24.5,-289 18.5,-289 12.5,-283 12.5,-277 12.5,-277 12.5,-264 12.5,-264 12.5,-258 18.5,-252 24.5,-252 24.5,-252 797.5,-252 797.5,-252 803.5,-252 809.5,-258 809.5,-264 809.5,-264 809.5,-277 809.5,-277 809.5,-283 803.5,-289 797.5,-289"/>
<text text-anchor="start" x="28.5" y="-268.4" font-family="Helvetica,sans-Serif" font-weight="bold" font-size="12.00" fill="white">ENRICHMENT (AI)</text>
<text text-anchor="start" x="146.5" y="-268.4" font-family="Helvetica,sans-Serif" font-size="12.00" fill="white">  </text>
<text text-anchor="start" x="154.5" y="-268.4" font-family="Helvetica,sans-Serif" font-size="11.00" fill="white">batch enrich · Claude, config&#45;driven · + plain_english_summary · + user_intent_tags · </text>
<text text-anchor="start" x="628.5" y="-268.4" font-family="Helvetica,sans-Serif" font-weight="bold" font-size="11.00" fill="white">100% coverage · 0 failures</text>
</g>
<!-- statutes&#45;&gt;enrich -->
<g id="edge6" class="edge">
<title>statutes&#45;&gt;enrich</title>
<path fill="none" stroke="#37474f" stroke-width="2" d="M411,-338.89C411,-327.49 411,-312.41 411,-299.4"/>
<polygon fill="#37474f" stroke="#37474f" stroke-width="2" points="414.5,-299.09 411,-289.09 407.5,-299.09 414.5,-299.09"/>
</g>
<!-- platform -->
<g id="node8" class="node">
<title>platform</title>
<path fill="#ad1457" stroke="#6d0d37" stroke-width="2.2" d="M720,-202C720,-202 522,-202 522,-202 516,-202 510,-196 510,-190 510,-190 510,-158 510,-158 510,-152 516,-146 522,-146 522,-146 720,-146 720,-146 726,-146 732,-152 732,-158 732,-158 732,-190 732,-190 732,-196 726,-202 720,-202"/>
<text text-anchor="start" x="573" y="-181.4" font-family="Helvetica,sans-Serif" font-weight="bold" font-size="12.00" fill="white">Data platform</text>
<text text-anchor="start" x="526" y="-171" font-family="Helvetica,sans-Serif" font-size="10.00" fill="white">coverage / cost · quality gate (0 errors)</text>
<text text-anchor="start" x="567.5" y="-161" font-family="Helvetica,sans-Serif" font-size="10.00" fill="white">Parquet · DuckDB SQL</text>
</g>
<!-- enrich&#45;&gt;platform -->
<g id="edge7" class="edge">
<title>enrich&#45;&gt;platform</title>
<path fill="none" stroke="#37474f" stroke-width="2" d="M466.32,-251.97C475,-248.86 483.8,-245.5 492,-242 516.18,-231.69 542.03,-218.68 564.2,-206.87"/>
<polygon fill="#37474f" stroke="#37474f" stroke-width="2" points="565.99,-209.88 573.14,-202.07 562.67,-203.72 565.99,-209.88"/>
</g>
<!-- report -->
<g id="node9" class="node">
<title>report</title>
<path fill="#ad1457" stroke="#6d0d37" stroke-width="2.2" d="M461.5,-202C461.5,-202 360.5,-202 360.5,-202 354.5,-202 348.5,-196 348.5,-190 348.5,-190 348.5,-158 348.5,-158 348.5,-152 354.5,-146 360.5,-146 360.5,-146 461.5,-146 461.5,-146 467.5,-146 473.5,-152 473.5,-158 473.5,-158 473.5,-190 473.5,-190 473.5,-196 467.5,-202 461.5,-202"/>
<text text-anchor="start" x="384" y="-181.4" font-family="Helvetica,sans-Serif" font-weight="bold" font-size="12.00" fill="white">Reports</text>
<text text-anchor="start" x="364.5" y="-171" font-family="Helvetica,sans-Serif" font-size="10.00" fill="white">public HTML report</text>
<text text-anchor="start" x="369.5" y="-161" font-family="Helvetica,sans-Serif" font-size="10.00" fill="white">client case study</text>
</g>
<!-- enrich&#45;&gt;report -->
<g id="edge8" class="edge">
<title>enrich&#45;&gt;report</title>
<path fill="none" stroke="#37474f" stroke-width="2" d="M411,-251.73C411,-240.65 411,-225.97 411,-212.42"/>
<polygon fill="#37474f" stroke="#37474f" stroke-width="2" points="414.5,-212.36 411,-202.36 407.5,-212.36 414.5,-212.36"/>
</g>
<!-- caselaw -->
<g id="node10" class="node">
<title>caselaw</title>
<path fill="#c62828" stroke="#7f1818" stroke-width="2.2" d="M300.5,-202C300.5,-202 113.5,-202 113.5,-202 107.5,-202 101.5,-196 101.5,-190 101.5,-190 101.5,-158 101.5,-158 101.5,-152 107.5,-146 113.5,-146 113.5,-146 300.5,-146 300.5,-146 306.5,-146 312.5,-152 312.5,-158 312.5,-158 312.5,-190 312.5,-190 312.5,-196 306.5,-202 300.5,-202"/>
<text text-anchor="start" x="128.5" y="-181.4" font-family="Helvetica,sans-Serif" font-weight="bold" font-size="12.00" fill="white">CourtListener case&#45;law</text>
<text text-anchor="start" x="117.5" y="-171" font-family="Helvetica,sans-Serif" font-size="10.00" fill="white">530,141 cases · S3+Parquet+Athena</text>
<text text-anchor="start" x="131.5" y="-161" font-family="Helvetica,sans-Serif" font-size="10.00" fill="white">(parallel pipeline → diagram 2)</text>
</g>
<!-- enrich&#45;&gt;caselaw -->
<g id="edge9" class="edge">
<title>enrich&#45;&gt;caselaw</title>
<path fill="none" stroke="#7f1818" stroke-width="2" stroke-dasharray="5,2" d="M355.89,-251.89C347.46,-248.82 338.94,-245.48 331,-242 307.76,-231.81 283.01,-218.88 261.78,-207.11"/>
<polygon fill="#7f1818" stroke="#7f1818" stroke-width="2" points="263.34,-203.98 252.91,-202.15 259.92,-210.08 263.34,-203.98"/>
</g>
<!-- results -->
<g id="node11" class="node">
<title>results</title>
<path fill="#00695c" stroke="#003d36" stroke-width="2.2" d="M501,-96C501,-96 321,-96 321,-96 315,-96 309,-90 309,-84 309,-84 309,-12 309,-12 309,-6 315,0 321,0 321,0 501,0 501,0 507,0 513,-6 513,-12 513,-12 513,-84 513,-84 513,-90 507,-96 501,-96"/>
<text text-anchor="start" x="381" y="-75.4" font-family="Helvetica,sans-Serif" font-weight="bold" font-size="12.00" fill="white">RESULTS</text>
<text text-anchor="start" x="343" y="-63.4" font-family="Helvetica,sans-Serif" font-size="12.00" fill="white">53,131 statute records</text>
<text text-anchor="start" x="350" y="-51.4" font-family="Helvetica,sans-Serif" font-size="12.00" fill="white">530,141 court cases</text>
<text text-anchor="start" x="326.5" y="-39.4" font-family="Helvetica,sans-Serif" font-size="12.00" fill="white">4 states × 12 practice areas</text>
<text text-anchor="start" x="325" y="-27.4" font-family="Helvetica,sans-Serif" font-size="12.00" fill="white">100% AI&#45;summary coverage</text>
<text text-anchor="start" x="350" y="-15.4" font-family="Helvetica,sans-Serif" font-size="12.00" fill="white">0 data&#45;quality errors</text>
</g>
<!-- platform&#45;&gt;results -->
<!-- report&#45;&gt;results -->
<!-- caselaw&#45;&gt;results -->
</g>
</svg>
